<svg width="458" height="567" viewBox="0 0 458 567" fill="none" xmlns="http://www.w3.org/2000/svg">
<path d="M311.162 184.877L311.375 185.435L311.886 185.126L479.433 83.8166L380.125 252.557L379.822 253.073L380.383 253.28L564.053 321.108L370.209 348.674L369.617 348.758L369.804 349.326L431.29 535.214L288.88 400.849L288.444 400.439L288.117 400.94L181.119 564.91L197.379 369.793L197.429 369.197L196.833 369.254L1.9221 387.833L164.611 278.892L165.107 278.56L164.691 278.129L28.6398 137.326L215.247 196.597L215.818 196.778L215.895 196.186L241.152 2.02586L311.162 184.877Z" stroke="#BCEC30"/>
</svg>
